<svg xmlns="http://www.w3.org/2000/svg" xmlns:xlink="http://www.w3.org/1999/xlink" width="639" height="426" viewBox="0 0 639 426"><defs><style>.a{fill:none;}.b{clip-path:url(#a);}.c{fill:#93ffbf;}.d{fill:#019788;}.e{fill:#37dbba;}.f{fill:#00c3b6;}</style><clipPath id="a"><rect class="a" width="639" height="426"/></clipPath></defs><g class="b"><g transform="translate(73.385 -114.007)"><g transform="translate(177.006 388.065)"><path class="c" d="M470.55,217.1l5.359-5.4,7.257,1.9-5.4,5.434Z" transform="translate(-470.37 -179.808)"/><path class="d" d="M480.475,253.784l-.159-31.886,7.253,1.913.163,31.871Z" transform="translate(-474.936 -221.898)"/><path class="e" d="M475.752,247.206l-.159-31.886-5.38,5.38.18,31.907Z" transform="translate(-470.213 -215.32)"/></g><g transform="translate(514.876 110.123)"><path class="f" d="M1176.695,547.464V403.721l-71.99,70.452.829,144.452Z" transform="translate(-1104.705 -403.721)"/><path class="d" d="M1106.262,446l71.161-71.161L1234.9,390l-71.378,71.378Z" transform="translate(-1105.433 -231.098)"/><path class="c" d="M1297.375,667.788V526.58l-57.479-17.7V652.627Z" transform="translate(-1167.906 -508.883)"/></g><g transform="translate(463.082 32.055)"><path class="c" d="M1009.762,484.239l36.881-37.169,49.943,13.062-37.137,37.393Z" transform="translate(-1008.526 -227.636)"/><path class="d" d="M1078.063,736.725l-1.092-219.434,49.915,13.162,1.12,219.334Z" transform="translate(-1039.946 -517.292)"/><path class="e" d="M1045.558,691.454l-1.092-219.434-37.025,37.025,1.236,219.578Z" transform="translate(-1007.441 -472.02)"/></g><g transform="translate(542.475 87.974)"><path class="c" d="M1157.512,650.829l15.553-15.674,21.061,5.508-15.661,15.769Z" transform="translate(-1156.991 -542.618)"/><path class="d" d="M1186.315,757.3l-.46-92.536,21.05,5.55.472,92.494Z" transform="translate(-1170.241 -664.767)"/><path class="e" d="M1172.608,738.212l-.46-92.536-15.614,15.614.521,92.6Z" transform="translate(-1156.534 -645.676)"/></g><g transform="translate(510.613 418.063)"><path class="f" d="M1096.839,152.572l-.138-46.718,40.348-40.348.2,46.655Z" transform="translate(-1096.701 -65.506)"/><path class="c" d="M1096.96,102.2l40.41-40.41,7.387,1.984-40.406,40.406Z" transform="translate(-1096.822 -15.133)"/><path class="e" d="M1172.47,137.667l7.371,2,.217,46.639-7.387-1.984Z" transform="translate(-1132.122 -137.667)"/></g><g transform="translate(558.677 271.689)"><path class="f" d="M1187.1,427.45l-.138-46.718,40.348-40.348.2,46.655Z" transform="translate(-1186.96 -340.385)"/><path class="c" d="M1187.219,377.077l40.41-40.41,7.387,1.984-40.406,40.406Z" transform="translate(-1187.081 -290.011)"/><path class="e" d="M1262.729,412.546l7.371,2,.217,46.639-7.387-1.984Z" transform="translate(-1222.382 -412.546)"/></g><g transform="translate(26.96 81.06)"><path class="f" d="M188.577,785.435l-.138-46.718,40.348-40.348.2,46.655Z" transform="translate(-188.439 -698.369)"/><path class="c" d="M188.7,735.062l40.41-40.41,7.387,1.984-40.406,40.406Z" transform="translate(-188.56 -647.996)"/><path class="e" d="M264.208,770.531l7.371,2,.217,46.639-7.387-1.984Z" transform="translate(-223.861 -770.531)"/></g><g transform="translate(381.456 389.479)"><path class="f" d="M854.32,190.574l-.166-56.3,48.622-48.622.242,56.224Z" transform="translate(-854.154 -85.652)"/><path class="c" d="M854.466,129.869l48.7-48.7,8.9,2.391-48.693,48.693Z" transform="translate(-854.3 -24.948)"/><path class="e" d="M945.462,172.613l8.883,2.41.262,56.2-8.9-2.391Z" transform="translate(-896.84 -172.613)"/></g><g transform="translate(118.904 57.746)"><path class="f" d="M361.45,713.432,361.1,595.946,462.568,494.48l.5,117.329Z" transform="translate(-361.103 -494.48)"/><path class="c" d="M361.755,586.754,463.378,485.13l18.577,4.989L380.343,591.733Z" transform="translate(-361.408 -367.802)"/><path class="e" d="M551.647,675.951l18.537,5.03.546,117.288-18.577-4.989Z" transform="translate(-450.181 -675.951)"/></g><g transform="translate(102.937 81.384)"><path class="f" d="M331.326,746.188l-.208-70.334,60.743-60.743.3,70.24Z" transform="translate(-331.118 -615.111)"/><path class="c" d="M331.509,670.351l60.837-60.837,11.122,2.987-60.831,60.831Z" transform="translate(-331.301 -539.274)"/><path class="e" d="M445.189,723.749l11.1,3.011.327,70.215-11.121-2.987Z" transform="translate(-384.446 -723.749)"/></g><g transform="translate(433.126)"><path class="c" d="M955.141,170.6l74.177-74.155,25.172,6.771-74.211,74.211Z" transform="translate(-953.035 311.233)"/><path class="f" d="M1027.469,516.936,953.292,591.09l-2.107-407.766,73.987-74.062Z" transform="translate(-951.185 -109.262)"/><path class="e" d="M1117.595,650.247l-2.577-407.854-24.892-6.59,2.3,407.674Z" transform="translate(-1016.139 -235.803)"/></g><g transform="translate(340.339 65.894)"><path class="f" d="M839.452,664.73V539.911L776.94,601.088l.72,125.434Z" transform="translate(-776.94 -539.911)"/><path class="e" d="M778.292,576.625l61.792-61.792L890,528l-61.981,61.981Z" transform="translate(-777.572 -390.014)"/><path class="c" d="M944.245,769.213V646.6l-49.912-15.367V756.047Z" transform="translate(-831.821 -631.228)"/></g><g transform="translate(340.339 211.814)"><path class="f" d="M839.452,390.705V265.886L776.94,327.063l.72,125.434Z" transform="translate(-776.94 -265.886)"/><path class="e" d="M778.292,302.6l61.792-61.792L890,253.973l-61.981,61.981Z" transform="translate(-777.572 -115.989)"/><path class="c" d="M944.245,495.188V372.57L894.333,357.2V482.022Z" transform="translate(-831.821 -357.203)"/></g><g transform="translate(282.989 354.699)"><path class="c" d="M669.955,203.595l11.34-11.428,15.356,4.016-11.419,11.5Z" transform="translate(-669.575 -124.697)"/><path class="d" d="M690.956,281.226l-.336-67.469,15.347,4.047.344,67.438Z" transform="translate(-679.236 -213.757)"/><path class="e" d="M680.961,267.307l-.336-67.469-11.384,11.384.38,67.513Z" transform="translate(-669.241 -199.838)"/></g><g transform="translate(471.369 335.034)"><path class="c" d="M1023.716,240.524l11.34-11.428,15.356,4.016-11.418,11.5Z" transform="translate(-1023.336 -161.627)"/><path class="d" d="M1044.717,318.156l-.336-67.469,15.347,4.047.344,67.438Z" transform="translate(-1032.997 -250.687)"/><path class="e" d="M1034.722,304.236l-.336-67.469L1023,248.152l.38,67.513Z" transform="translate(-1023.003 -236.767)"/></g><g transform="translate(208.746 291.087)"><path class="f" d="M530.071,327.484l-.253-85.552L603.7,168.045l.368,85.437Z" transform="translate(-529.818 -168.045)"/><path class="c" d="M530.293,235.238l74-74,13.528,3.633-73.993,73.993Z" transform="translate(-530.04 -75.8)"/><path class="e" d="M668.57,300.19l13.5,3.663.4,85.408-13.528-3.633Z" transform="translate(-594.684 -300.19)"/></g><g transform="translate(209.152 103.768)"><path class="f" d="M531.046,561.983l-.465-157.228L666.37,268.966l.676,157.018Z" transform="translate(-530.581 -268.966)"/><path class="c" d="M531.454,392.453l136-136,24.862,6.677L556.33,399.116Z" transform="translate(-530.989 -99.436)"/><path class="e" d="M785.581,511.823l24.807,6.732.73,156.963-24.862-6.677Z" transform="translate(-649.793 -511.823)"/></g><g transform="translate(166.454 103.768)"><path class="f" d="M450.862,561.983,450.4,404.755,586.186,268.966l.676,157.018Z" transform="translate(-450.397 -268.966)"/><path class="c" d="M451.27,392.453l136-136,24.862,6.677L476.145,399.116Z" transform="translate(-450.805 -99.436)"/><path class="e" d="M705.4,511.823l24.807,6.732.73,156.963-24.862-6.677Z" transform="translate(-569.608 -511.823)"/></g><g transform="translate(190.094 21.198)"><path class="c" d="M497.112,504.627l36.881-37.169,49.943,13.062L546.8,517.913Z" transform="translate(-495.876 -248.024)"/><path class="d" d="M565.413,757.113l-1.092-219.434,49.915,13.162,1.12,219.334Z" transform="translate(-527.296 -537.679)"/><path class="e" d="M532.908,711.841l-1.092-219.434-37.025,37.025,1.236,219.578Z" transform="translate(-494.791 -492.408)"/></g><g transform="translate(90.609 38.103)"><path class="c" d="M309.1,714l17.947-18.087,24.3,6.356-18.071,18.2Z" transform="translate(-308.495 -589.135)"/><path class="d" d="M342.332,836.863,341.8,730.084l24.289,6.4.545,106.73Z" transform="translate(-323.784 -730.084)"/><path class="e" d="M326.515,814.833l-.531-106.779-18.017,18.017.6,106.849Z" transform="translate(-307.967 -708.055)"/></g><g transform="translate(0 80.324)"><path class="c" d="M138.285,767.163l7.546-7.6,10.218,2.672-7.6,7.651Z" transform="translate(-138.032 -714.663)"/><path class="d" d="M152.259,818.821l-.223-44.9,10.212,2.693.229,44.875Z" transform="translate(-144.461 -773.926)"/><path class="e" d="M145.609,809.559l-.223-44.9-7.575,7.575.253,44.925Z" transform="translate(-137.81 -764.663)"/></g><g transform="translate(184.605 244.328)"><path class="c" d="M485.2,410.863l11.34-11.428,15.356,4.016-11.419,11.5Z" transform="translate(-484.816 -331.965)"/><path class="d" d="M506.2,488.494l-.336-67.469,15.347,4.047.344,67.438Z" transform="translate(-494.477 -421.025)"/><path class="e" d="M496.2,474.575l-.336-67.469L484.483,418.49l.38,67.513Z" transform="translate(-484.483 -407.106)"/></g><g transform="translate(442.317 443.133)"><path class="c" d="M968.833,103.337,975,97.117l8.357,2.186-6.214,6.257Z" transform="translate(-968.626 -60.397)"/><path class="d" d="M980.263,145.587l-.183-36.72,8.353,2.2.187,36.7Z" transform="translate(-973.884 -108.868)"/><path class="e" d="M974.823,138.012l-.183-36.72-6.2,6.2.207,36.744Z" transform="translate(-968.445 -101.292)"/></g><g transform="translate(545.816 493.215)"><path class="c" d="M1163.089,31.064l4.462-4.5,6.042,1.58-4.493,4.523Z" transform="translate(-1162.94 -0.023)"/><path class="d" d="M1171.352,61.607l-.132-26.545,6.038,1.592.135,26.532Z" transform="translate(-1166.741 -35.062)"/><path class="e" d="M1167.42,56.13l-.132-26.545-4.479,4.479.149,26.562Z" transform="translate(-1162.809 -29.586)"/></g><g transform="translate(457.814 98.971)"><path class="c" d="M997.89,758.859l5.448-5.491,7.378,1.93-5.486,5.524Z" transform="translate(-997.708 -720.954)"/><path class="d" d="M1007.98,796.156l-.161-32.414,7.373,1.944.165,32.4Z" transform="translate(-1002.349 -763.741)"/><path class="e" d="M1003.178,789.468l-.161-32.414-5.469,5.469.182,32.435Z" transform="translate(-997.548 -757.054)"/></g><g transform="translate(375.119 98.064)"><path class="c" d="M842.6,760.563l5.448-5.491,7.378,1.93-5.486,5.524Z" transform="translate(-842.413 -722.658)"/><path class="d" d="M852.684,797.859l-.161-32.414,7.373,1.944.165,32.4Z" transform="translate(-847.054 -765.445)"/><path class="e" d="M847.883,791.172l-.161-32.414-5.469,5.469.183,32.436Z" transform="translate(-842.252 -758.758)"/></g><g transform="translate(324.081 379.771)"><path class="c" d="M746.751,231.539l5.448-5.491,7.378,1.929-5.486,5.524Z" transform="translate(-746.569 -193.634)"/><path class="d" d="M756.841,268.836l-.161-32.414,7.373,1.944.165,32.4Z" transform="translate(-751.21 -236.422)"/><path class="e" d="M752.039,262.149l-.161-32.414-5.469,5.469.183,32.436Z" transform="translate(-746.409 -229.734)"/></g><g transform="translate(260.956 51.058)"><path class="c" d="M628.771,734.762l14.406-14.518,19.508,5.1-14.506,14.606Z" transform="translate(-628.288 -634.532)"/><path class="d" d="M655.449,833.384l-.426-85.711,19.5,5.141.437,85.672Z" transform="translate(-640.561 -747.672)"/><path class="e" d="M642.753,815.7l-.426-85.711-14.462,14.462.483,85.768Z" transform="translate(-627.864 -729.989)"/></g><g transform="translate(323.141 48.464)"><path class="c" d="M745.549,739.635l14.406-14.518,19.508,5.1-14.506,14.606Z" transform="translate(-745.067 -639.405)"/><path class="d" d="M772.228,838.256l-.426-85.711,19.5,5.141.437,85.672Z" transform="translate(-757.339 -752.545)"/><path class="e" d="M759.531,820.573l-.426-85.711-14.462,14.462.483,85.768Z" transform="translate(-744.643 -734.862)"/></g><g transform="translate(352.214 428.86)"><path class="c" d="M799.529,150.112l4.6-4.639,6.234,1.63-4.635,4.667Z" transform="translate(-799.375 -118.085)"/><path class="d" d="M808.054,181.626l-.136-27.388,6.23,1.643.14,27.376Z" transform="translate(-803.296 -154.238)"/><path class="e" d="M804,175.975l-.136-27.388-4.621,4.621.154,27.406Z" transform="translate(-799.239 -148.587)"/></g><g transform="translate(546.044 353.184)"><path class="c" d="M1163.471,303.185l3.743-3.772,5.068,1.326-3.769,3.795Z" transform="translate(-1163.346 -277.145)"/><path class="d" d="M1170.4,328.807l-.111-22.268,5.065,1.336.114,22.258Z" transform="translate(-1166.534 -306.539)"/><path class="e" d="M1167.1,324.213l-.111-22.268-3.757,3.757.125,22.283Z" transform="translate(-1163.236 -301.945)"/></g><g transform="translate(486.041 495.042)"><path class="c" d="M1050.759,43.391l3.224-3.249,4.366,1.142-3.246,3.269Z" transform="translate(-1050.651 -20.959)"/><path class="d" d="M1056.73,65.463l-.1-19.183L1061,47.431l.1,19.174Z" transform="translate(-1053.398 -46.28)"/><path class="e" d="M1053.889,61.505l-.1-19.183-3.237,3.237.108,19.2Z" transform="translate(-1050.556 -42.323)"/></g><g transform="translate(98.677 236.285)"><path class="c" d="M323.354,522.711l3.743-3.772,5.068,1.326-3.769,3.795Z" transform="translate(-323.228 -496.671)"/><path class="d" d="M330.285,548.333l-.111-22.268,5.065,1.336.114,22.258Z" transform="translate(-326.417 -526.065)"/><path class="e" d="M326.986,543.739l-.111-22.268-3.757,3.757.125,22.283Z" transform="translate(-323.118 -521.471)"/></g><g transform="translate(74.895 155.203)"><path class="c" d="M278.661,681.581l3.224-3.249,4.366,1.142L283,682.742Z" transform="translate(-278.553 -659.149)"/><path class="d" d="M284.631,703.653l-.1-19.183,4.364,1.151.1,19.174Z" transform="translate(-281.299 -684.47)"/><path class="e" d="M281.79,699.7l-.1-19.183-3.237,3.237.108,19.2Z" transform="translate(-278.458 -680.512)"/></g><g transform="translate(18.513 134.192)"><path class="c" d="M172.641,749.08l1.022-1.03,1.384.362-1.029,1.036Z" transform="translate(-172.606 -741.968)"/><path class="d" d="M174.533,756.077,174.5,750l1.383.365.031,6.078Z" transform="translate(-173.477 -749.995)"/><path class="e" d="M173.633,754.822l-.03-6.081-1.026,1.026.034,6.085Z" transform="translate(-172.576 -748.741)"/></g><g transform="translate(137.603 203.635)"><path class="c" d="M396.281,618.67l1.022-1.03,1.384.362-1.029,1.036Z" transform="translate(-396.247 -611.559)"/><path class="d" d="M398.174,625.668l-.03-6.081,1.383.365.031,6.078Z" transform="translate(-397.118 -619.586)"/><path class="e" d="M397.273,624.413l-.03-6.081-1.026,1.026.034,6.085Z" transform="translate(-396.217 -618.332)"/></g><g transform="translate(274.198 414.276)"><path class="c" d="M652.8,223.1l1.022-1.03,1.384.362-1.029,1.036Z" transform="translate(-652.761 -215.992)"/><path class="d" d="M654.689,230.1l-.03-6.081,1.383.365.031,6.078Z" transform="translate(-653.632 -224.019)"/><path class="e" d="M653.788,228.846l-.03-6.081-1.026,1.026.034,6.085Z" transform="translate(-652.731 -222.765)"/></g><g transform="translate(533.43 522.124)"><path class="c" d="M1139.613,20.575l1.022-1.03,1.384.362-1.029,1.036Z" transform="translate(-1139.578 -13.463)"/><path class="d" d="M1141.505,27.572l-.03-6.081,1.383.365.031,6.078Z" transform="translate(-1140.449 -21.491)"/><path class="e" d="M1140.6,26.317l-.03-6.081-1.026,1.026.034,6.085Z" transform="translate(-1139.548 -20.236)"/></g><g transform="translate(555.249 382)"><path class="c" d="M1180.586,283.716l1.022-1.03,1.384.362-1.029,1.036Z" transform="translate(-1180.552 -276.605)"/><path class="d" d="M1182.479,290.713l-.03-6.081,1.383.365.031,6.078Z" transform="translate(-1181.422 -284.632)"/><path class="e" d="M1181.578,289.459l-.03-6.081-1.026,1.026.034,6.085Z" transform="translate(-1180.522 -283.377)"/></g><g transform="translate(151.659 284.339)"><path class="c" d="M422.73,456.644l1.844-1.859,2.5.653-1.857,1.87Z" transform="translate(-422.668 -443.812)"/><path class="d" d="M426.146,469.27l-.055-10.973,2.5.658.056,10.968Z" transform="translate(-424.24 -458.297)"/><path class="e" d="M424.52,467.006l-.055-10.973-1.852,1.852.062,10.98Z" transform="translate(-422.614 -456.033)"/></g><g transform="translate(152.569 309.021)"><path class="e" d="M424.395,394.129l-.072-24.235,20.93-20.93.1,24.2Z" transform="translate(-424.323 -348.964)"/><path class="c" d="M424.458,368l20.963-20.963,3.832,1.029-20.961,20.96Z" transform="translate(-424.386 -322.833)"/><path class="d" d="M463.628,386.4l3.824,1.038.113,24.194-3.832-1.029Z" transform="translate(-442.698 -386.397)"/></g><g transform="translate(319.959 294.329)"><path class="e" d="M738.791,392.594l-.124-42.036,36.3-36.3.181,41.98Z" transform="translate(-738.667 -314.254)"/><path class="c" d="M738.9,347.269l36.36-36.36,6.647,1.785L745.551,349.05Z" transform="translate(-738.776 -268.928)"/><path class="d" d="M806.843,379.183l6.632,1.8.2,41.965-6.647-1.785Z" transform="translate(-770.539 -379.183)"/></g><g transform="translate(469.033 167.162)"><path class="e" d="M1018.74,631.544l-.124-41.877,36.3-36.3.181,41.98Z" transform="translate(-1018.616 -553.362)"/><path class="c" d="M1018.849,586.079l36.36-36.36,6.647,1.785L1025.5,587.86Z" transform="translate(-1018.725 -507.738)"/><path class="d" d="M1086.792,617.993l6.632,1.8.2,41.965-6.647-1.785Z" transform="translate(-1050.488 -617.993)"/></g><g transform="translate(490.599 66.513)"><path class="e" d="M1059.239,820.553l-.124-41.877,36.3-36.3.181,41.98Z" transform="translate(-1059.115 -742.372)"/><path class="c" d="M1059.348,775.088l36.36-36.361,6.647,1.785L1066,776.87Z" transform="translate(-1059.224 -696.748)"/><path class="d" d="M1127.291,807l6.632,1.8.2,41.965-6.647-1.785Z" transform="translate(-1090.987 -807.003)"/></g><g transform="translate(496.757 441.222)"><path class="e" d="M1070.76,140.886l-.081-27.279,23.559-23.559.117,27.242Z" transform="translate(-1070.679 -90.049)"/><path class="c" d="M1070.83,111.473l23.6-23.6,4.313,1.158-23.593,23.593Z" transform="translate(-1070.75 -60.636)"/><path class="d" d="M1114.921,132.184l4.3,1.168.127,27.233-4.313-1.158Z" transform="translate(-1091.362 -132.184)"/></g><g transform="translate(368.177 419.447)"><path class="c" d="M829.4,189.943l2.864-2.886,3.878,1.014-2.883,2.9Z" transform="translate(-829.301 -170.02)"/><path class="d" d="M834.7,209.547l-.085-17.037,3.876,1.022.087,17.03Z" transform="translate(-831.74 -192.509)"/><path class="e" d="M832.176,206.032l-.085-17.037-2.875,2.875.1,17.049Z" transform="translate(-829.216 -188.994)"/></g><g transform="translate(381.729 264.167)"><path class="c" d="M855,449.764l5.359-5.4,7.257,1.9-5.4,5.434Z" transform="translate(-854.823 -412.477)"/><path class="d" d="M864.927,486.453l-.159-31.886,7.253,1.913.163,31.871Z" transform="translate(-859.389 -454.567)"/><path class="e" d="M860.2,479.875l-.159-31.886-5.38,5.38.18,31.907Z" transform="translate(-854.665 -447.989)"/></g></g></g></svg>